<?xml version="1.0" encoding="utf-8"?>
<svg width="512" height="512" viewBox="0 0 512 512" xmlns="http://www.w3.org/2000/svg"
     xmlns:xlink="http://www.w3.org/1999/xlink">
    <defs>
    <svg version="1.1" id="svg-1" xmlns="http://www.w3.org/2000/svg" xmlns:xlink="http://www.w3.org/1999/xlink" x="0px" y="0px"
       width="446.25px" height="446.25px" viewBox="0 0 446.25 446.25" style="enable-background:new 0 0 446.25 446.25;"
       xml:space="preserve">
      <g id="dashboard">
        <path d="M0,102h102V0H0V102z M153,408h102V306H153V408z M0,408h102V306H0V408z M0,255h102V153H0V255z M153,255h102V153H153V255z
          M306,0v102h102V0H306z M153,102h102V0H153V102z M306,255h102V153H306V255z M306,408h102V306H306V408z"/>
      </g>
    </svg>

    <svg version="1.1" id="svg-2" xmlns="http://www.w3.org/2000/svg" xmlns:xlink="http://www.w3.org/1999/xlink" x="0px" y="0px"
       width="408px" height="408px" viewBox="0 0 408 408" style="enable-background:new 0 0 408 408;" xml:space="preserve">
      <g id="person">
        <path d="M204,204c56.1,0,102-45.9,102-102S260.1,0,204,0c-56.1,0-102,45.9-102,102S147.9,204,204,204z M204,255
          C135.15,255,0,288.15,0,357v51h408v-51C408,288.15,272.85,255,204,255z"/>
      </g>
    </svg>

    <svg version="1.1" id="svg-3" xmlns="http://www.w3.org/2000/svg" xmlns:xlink="http://www.w3.org/1999/xlink" x="0px" y="0px"
       width="535.5px" height="535.5px" viewBox="0 0 535.5 535.5" style="enable-background:new 0 0 535.5 535.5;" xml:space="preserve"
      >
      <g id="notifications-on">
        <path d="M142.8,53.55l-35.7-35.7C45.9,63.75,5.1,135.15,0,216.75h51C56.1,147.9,89.25,89.25,142.8,53.55z M484.5,216.75h51
          c-5.1-81.6-43.35-153-104.55-198.9l-35.7,35.7C446.25,89.25,479.4,147.9,484.5,216.75z M433.5,229.5
          c0-79.05-53.55-142.8-127.5-160.65V51c0-20.4-17.85-38.25-38.25-38.25c-20.4,0-38.25,17.85-38.25,38.25v17.85
          C155.55,86.7,102,150.45,102,229.5v140.25l-51,51v25.5h433.5v-25.5l-51-51V229.5z M267.75,522.75c2.55,0,7.65,0,10.2,0
          c17.85-2.55,30.6-15.3,35.7-30.6c2.55-5.101,5.1-12.75,5.1-20.4h-102C216.75,499.8,239.7,522.75,267.75,522.75z"/>
      </g>
    </svg>

    <svg version="1.1" id="svg-4" xmlns="http://www.w3.org/2000/svg" xmlns:xlink="http://www.w3.org/1999/xlink" x="0px" y="0px"
       width="459px" height="459px" viewBox="0 0 459 459" style="enable-background:new 0 0 459 459;" xml:space="preserve">
      <g id="palette">
        <path d="M229.5,0C102,0,0,102,0,229.5S102,459,229.5,459c20.4,0,38.25-17.85,38.25-38.25c0-10.2-2.55-17.85-10.2-25.5
          c-5.1-7.65-10.2-15.3-10.2-25.5c0-20.4,17.851-38.25,38.25-38.25h45.9c71.4,0,127.5-56.1,127.5-127.5C459,91.8,357,0,229.5,0z
           M89.25,229.5c-20.4,0-38.25-17.85-38.25-38.25S68.85,153,89.25,153s38.25,17.85,38.25,38.25S109.65,229.5,89.25,229.5z
           M165.75,127.5c-20.4,0-38.25-17.85-38.25-38.25S145.35,51,165.75,51S204,68.85,204,89.25S186.15,127.5,165.75,127.5z
           M293.25,127.5c-20.4,0-38.25-17.85-38.25-38.25S272.85,51,293.25,51s38.25,17.85,38.25,38.25S313.65,127.5,293.25,127.5z
           M369.75,229.5c-20.4,0-38.25-17.85-38.25-38.25S349.35,153,369.75,153S408,170.85,408,191.25S390.15,229.5,369.75,229.5z"/>
      </g>
    </svg>

    <svg version="1.1" id="svg-5" xmlns="http://www.w3.org/2000/svg" xmlns:xlink="http://www.w3.org/1999/xlink" x="0px" y="0px"
       width="510px" height="510px" viewBox="0 0 510 510" style="enable-background:new 0 0 510 510;" xml:space="preserve">
      <g id="star">
        <polygon points="255,402.212 412.59,497.25 370.897,318.011 510,197.472 326.63,181.738 255,12.75 183.371,181.738 0,197.472
          139.103,318.011 97.41,497.25 		"/>
      </g>
    </svg>

    <svg version="1.1" id="svg-6" xmlns="http://www.w3.org/2000/svg" xmlns:xlink="http://www.w3.org/1999/xlink" x="0px" y="0px"
       width="446.25px" height="446.25px" viewBox="0 0 446.25 446.25" style="enable-background:new 0 0 446.25 446.25;"
       xml:space="preserve">
      <g id="search">
        <path d="M318.75,280.5h-20.4l-7.649-7.65c25.5-28.05,40.8-66.3,40.8-107.1C331.5,73.95,257.55,0,165.75,0S0,73.95,0,165.75
          S73.95,331.5,165.75,331.5c40.8,0,79.05-15.3,107.1-40.8l7.65,7.649v20.4L408,446.25L446.25,408L318.75,280.5z M165.75,280.5
          C102,280.5,51,229.5,51,165.75S102,51,165.75,51S280.5,102,280.5,165.75S229.5,280.5,165.75,280.5z"/>
      </g>
    </svg>

    <svg version="1.1" id="svg-7" xmlns="http://www.w3.org/2000/svg" xmlns:xlink="http://www.w3.org/1999/xlink" x="0px" y="0px"
       width="510px" height="510px" viewBox="0 0 510 510" style="enable-background:new 0 0 510 510;" xml:space="preserve">
      <g id="messenger">
        <path d="M459,0H51C22.95,0,0,22.95,0,51v459l102-102h357c28.05,0,51-22.95,51-51V51C510,22.95,487.05,0,459,0z"/>
      </g>
    </svg>
    </defs>
</svg>
