<?xml version="1.0" encoding="utf-8"?>
<svg width="512" height="512" viewBox="0 0 512 512" xmlns="http://www.w3.org/2000/svg"
     xmlns:xlink="http://www.w3.org/1999/xlink">
    <defs>
    <svg version="1.1" id="dashboard" xmlns="http://www.w3.org/2000/svg" xmlns:xlink="http://www.w3.org/1999/xlink" x="0px" y="0px"
       width="446.25px" height="446.25px" viewBox="0 0 446.25 446.25" style="enable-background:new 0 0 446.25 446.25;"
       xml:space="preserve">
      <g id="dashboard">
        <path d="M0,102h102V0H0V102z M153,408h102V306H153V408z M0,408h102V306H0V408z M0,255h102V153H0V255z M153,255h102V153H153V255z
          M306,0v102h102V0H306z M153,102h102V0H153V102z M306,255h102V153H306V255z M306,408h102V306H306V408z"/>
      </g>
    </svg>

    <svg version="1.1" id="profile" xmlns="http://www.w3.org/2000/svg" xmlns:xlink="http://www.w3.org/1999/xlink" x="0px" y="0px"
       width="408px" height="408px" viewBox="0 0 408 408" style="enable-background:new 0 0 408 408;" xml:space="preserve">
      <g id="person">
        <path d="M204,204c56.1,0,102-45.9,102-102S260.1,0,204,0c-56.1,0-102,45.9-102,102S147.9,204,204,204z M204,255
          C135.15,255,0,288.15,0,357v51h408v-51C408,288.15,272.85,255,204,255z"/>
      </g>
    </svg>

    <?xml version="1.0" encoding="iso-8859-1"?>
    <!-- Generator: Adobe Illustrator 16.0.0, SVG Export Plug-In . SVG Version: 6.00 Build 0)  -->
    <!DOCTYPE svg PUBLIC "-//W3C//DTD SVG 1.1//EN" "http://www.w3.org/Graphics/SVG/1.1/DTD/svg11.dtd">
    <svg version="1.1" id="table" xmlns="http://www.w3.org/2000/svg" xmlns:xlink="http://www.w3.org/1999/xlink" x="0px" y="0px"
       width="459px" height="459px" viewBox="0 0 459 459" style="enable-background:new 0 0 459 459;" xml:space="preserve">
      <g id="list">
        <path d="M0,255h51v-51H0V255z M0,357h51v-51H0V357z M0,153h51v-51H0V153z M102,255h357v-51H102V255z M102,357h357v-51H102V357z
           M102,102v51h357v-51H102z"/>
      </g>
    </svg>

    <?xml version="1.0" encoding="iso-8859-1"?>
    <!-- Generator: Adobe Illustrator 16.0.0, SVG Export Plug-In . SVG Version: 6.00 Build 0)  -->
    <!DOCTYPE svg PUBLIC "-//W3C//DTD SVG 1.1//EN" "http://www.w3.org/Graphics/SVG/1.1/DTD/svg11.dtd">
    <svg version="1.1" id="www" xmlns="http://www.w3.org/2000/svg" xmlns:xlink="http://www.w3.org/1999/xlink" x="0px" y="0px"
    	 width="510px" height="510px" viewBox="0 0 510 510" style="enable-background:new 0 0 510 510;" xml:space="preserve">
    	<g id="language">
    		<path d="M255,0C114.75,0,0,114.75,0,255s114.75,255,255,255s255-114.75,255-255S395.25,0,255,0z M430.95,153H357
    			c-7.65-33.15-20.4-61.2-35.7-91.8C367.2,79.05,408,109.65,430.95,153z M255,51c20.4,30.6,38.25,63.75,48.45,102h-96.9
    			C216.75,117.3,234.6,81.6,255,51z M58.65,306c-5.1-15.3-7.65-33.15-7.65-51c0-17.85,2.55-35.7,7.65-51h86.7
    			c-2.55,17.85-2.55,33.15-2.55,51c0,17.85,2.55,33.15,2.55,51H58.65z M79.05,357H153c7.65,33.15,20.4,61.2,35.7,91.8
    			C142.8,430.95,102,400.35,79.05,357z M153,153H79.05c25.5-43.35,63.75-73.95,109.65-91.8C173.4,91.8,160.65,119.85,153,153z
    			 M255,459c-20.4-30.6-38.25-63.75-48.45-102h96.9C293.25,392.7,275.4,428.4,255,459z M313.65,306h-117.3
    			c-2.55-17.85-5.1-33.15-5.1-51c0-17.85,2.55-33.15,5.1-51H316.2c2.55,17.85,5.1,33.15,5.1,51
    			C321.3,272.85,316.2,288.15,313.65,306z M321.3,448.8c15.3-28.05,28.05-58.649,35.7-91.8h73.95
    			C408,400.35,367.2,430.95,321.3,448.8z M367.2,306c2.55-17.85,2.55-33.15,2.55-51c0-17.85-2.55-33.15-2.55-51h86.7
    			c5.1,15.3,7.649,33.15,7.649,51c0,17.85-2.55,35.7-7.649,51H367.2z"/>
    	</g>
    </svg>

    <?xml version="1.0" encoding="iso-8859-1"?>
    <!-- Generator: Adobe Illustrator 16.0.0, SVG Export Plug-In . SVG Version: 6.00 Build 0)  -->
    <!DOCTYPE svg PUBLIC "-//W3C//DTD SVG 1.1//EN" "http://www.w3.org/Graphics/SVG/1.1/DTD/svg11.dtd">
    <svg version="1.1" id="notifications" xmlns="http://www.w3.org/2000/svg" xmlns:xlink="http://www.w3.org/1999/xlink" x="0px" y="0px"
       width="535.5px" height="535.5px" viewBox="0 0 535.5 535.5" style="enable-background:new 0 0 535.5 535.5;" xml:space="preserve">
      <g id="notifications-on">
        <path d="M142.8,53.55l-35.7-35.7C45.9,63.75,5.1,135.15,0,216.75h51C56.1,147.9,89.25,89.25,142.8,53.55z M484.5,216.75h51
          c-5.1-81.6-43.35-153-104.55-198.9l-35.7,35.7C446.25,89.25,479.4,147.9,484.5,216.75z M433.5,229.5
          c0-79.05-53.55-142.8-127.5-160.65V51c0-20.4-17.85-38.25-38.25-38.25c-20.4,0-38.25,17.85-38.25,38.25v17.85
          C155.55,86.7,102,150.45,102,229.5v140.25l-51,51v25.5h433.5v-25.5l-51-51V229.5z M267.75,522.75c2.55,0,7.65,0,10.2,0
          c17.85-2.55,30.6-15.3,35.7-30.6c2.55-5.101,5.1-12.75,5.1-20.4h-102C216.75,499.8,239.7,522.75,267.75,522.75z"/>
      </g>
    </svg>


    <?xml version="1.0" encoding="iso-8859-1"?>
    <!-- Generator: Adobe Illustrator 16.0.0, SVG Export Plug-In . SVG Version: 6.00 Build 0)  -->
    <!DOCTYPE svg PUBLIC "-//W3C//DTD SVG 1.1//EN" "http://www.w3.org/Graphics/SVG/1.1/DTD/svg11.dtd">
    <svg version="1.1" id="memory" xmlns="http://www.w3.org/2000/svg" xmlns:xlink="http://www.w3.org/1999/xlink" x="0px" y="0px"
       width="459px" height="459px" viewBox="0 0 459 459" style="enable-background:new 0 0 459 459;" xml:space="preserve">
      <g id="memory">
        <path d="M306,153H153v153h153V153z M255,255h-51v-51h51V255z M459,204v-51h-51v-51c0-28.05-22.95-51-51-51h-51V0h-51v51h-51V0h-51
          v51h-51c-28.05,0-51,22.95-51,51v51H0v51h51v51H0v51h51v51c0,28.05,22.95,51,51,51h51v51h51v-51h51v51h51v-51h51
          c28.05,0,51-22.95,51-51v-51h51v-51h-51v-51H459z M357,357H102V102h255V357z"/>
      </g>
    </svg>

    <?xml version="1.0" encoding="iso-8859-1"?>
    <!-- Generator: Adobe Illustrator 16.0.0, SVG Export Plug-In . SVG Version: 6.00 Build 0)  -->
    <!DOCTYPE svg PUBLIC "-//W3C//DTD SVG 1.1//EN" "http://www.w3.org/Graphics/SVG/1.1/DTD/svg11.dtd">
    <svg version="1.1" id="show" xmlns="http://www.w3.org/2000/svg" xmlns:xlink="http://www.w3.org/1999/xlink" x="0px" y="0px"
       width="408px" height="408px" viewBox="0 0 408 408" style="enable-background:new 0 0 408 408;" xml:space="preserve">
      <g id="more-vert">
        <path d="M204,102c28.05,0,51-22.95,51-51S232.05,0,204,0s-51,22.95-51,51S175.95,102,204,102z M204,153c-28.05,0-51,22.95-51,51
          s22.95,51,51,51s51-22.95,51-51S232.05,153,204,153z M204,306c-28.05,0-51,22.95-51,51s22.95,51,51,51s51-22.95,51-51
          S232.05,306,204,306z"/>
      </g>
    </svg>

    </defs>
</svg>
