<?xml version="1.0" encoding="utf-8"?>
<svg width="512" height="512" viewBox="0 0 512 512" xmlns="http://www.w3.org/2000/svg"
     xmlns:xlink="http://www.w3.org/1999/xlink">
    <defs>
    <svg version="1.1" id="svg-1" xmlns="http://www.w3.org/2000/svg" xmlns:xlink="http://www.w3.org/1999/xlink" x="0px" y="0px"
       width="446.25px" height="446.25px" viewBox="0 0 446.25 446.25" style="enable-background:new 0 0 446.25 446.25;"
       xml:space="preserve">
      <g id="dashboard">
        <path d="M0,102h102V0H0V102z M153,408h102V306H153V408z M0,408h102V306H0V408z M0,255h102V153H0V255z M153,255h102V153H153V255z
          M306,0v102h102V0H306z M153,102h102V0H153V102z M306,255h102V153H306V255z M306,408h102V306H306V408z"/>
      </g>
    </svg>

    <svg version="1.1" id="svg-2" xmlns="http://www.w3.org/2000/svg" xmlns:xlink="http://www.w3.org/1999/xlink" x="0px" y="0px"
       width="408px" height="408px" viewBox="0 0 408 408" style="enable-background:new 0 0 408 408;" xml:space="preserve">
      <g id="person">
        <path d="M204,204c56.1,0,102-45.9,102-102S260.1,0,204,0c-56.1,0-102,45.9-102,102S147.9,204,204,204z M204,255
          C135.15,255,0,288.15,0,357v51h408v-51C408,288.15,272.85,255,204,255z"/>
      </g>
    </svg>

    <svg version="1.1" id="svg-4" xmlns="http://www.w3.org/2000/svg" xmlns:xlink="http://www.w3.org/1999/xlink" x="0px" y="0px"
       width="510px" height="510px" viewBox="0 0 510 510" style="enable-background:new 0 0 510 510;" xml:space="preserve">
      <g id="messenger">
        <path d="M459,0H51C22.95,0,0,22.95,0,51v459l102-102h357c28.05,0,51-22.95,51-51V51C510,22.95,487.05,0,459,0z"/>
      </g>
    </svg>

    <?xml version="1.0" encoding="iso-8859-1"?>
    <!-- Generator: Adobe Illustrator 16.0.0, SVG Export Plug-In . SVG Version: 6.00 Build 0)  -->
    <!DOCTYPE svg PUBLIC "-//W3C//DTD SVG 1.1//EN" "http://www.w3.org/Graphics/SVG/1.1/DTD/svg11.dtd">
    <svg version="1.1" id="svg-6" xmlns="http://www.w3.org/2000/svg" xmlns:xlink="http://www.w3.org/1999/xlink" x="0px" y="0px"
    	 width="510px" height="510px" viewBox="0 0 510 510" style="enable-background:new 0 0 510 510;" xml:space="preserve">
    	<g id="language">
    		<path d="M255,0C114.75,0,0,114.75,0,255s114.75,255,255,255s255-114.75,255-255S395.25,0,255,0z M430.95,153H357
    			c-7.65-33.15-20.4-61.2-35.7-91.8C367.2,79.05,408,109.65,430.95,153z M255,51c20.4,30.6,38.25,63.75,48.45,102h-96.9
    			C216.75,117.3,234.6,81.6,255,51z M58.65,306c-5.1-15.3-7.65-33.15-7.65-51c0-17.85,2.55-35.7,7.65-51h86.7
    			c-2.55,17.85-2.55,33.15-2.55,51c0,17.85,2.55,33.15,2.55,51H58.65z M79.05,357H153c7.65,33.15,20.4,61.2,35.7,91.8
    			C142.8,430.95,102,400.35,79.05,357z M153,153H79.05c25.5-43.35,63.75-73.95,109.65-91.8C173.4,91.8,160.65,119.85,153,153z
    			 M255,459c-20.4-30.6-38.25-63.75-48.45-102h96.9C293.25,392.7,275.4,428.4,255,459z M313.65,306h-117.3
    			c-2.55-17.85-5.1-33.15-5.1-51c0-17.85,2.55-33.15,5.1-51H316.2c2.55,17.85,5.1,33.15,5.1,51
    			C321.3,272.85,316.2,288.15,313.65,306z M321.3,448.8c15.3-28.05,28.05-58.649,35.7-91.8h73.95
    			C408,400.35,367.2,430.95,321.3,448.8z M367.2,306c2.55-17.85,2.55-33.15,2.55-51c0-17.85-2.55-33.15-2.55-51h86.7
    			c5.1,15.3,7.649,33.15,7.649,51c0,17.85-2.55,35.7-7.649,51H367.2z"/>
    	</g>
    </svg>

    <?xml version="1.0" encoding="iso-8859-1"?>
    <!-- Generator: Adobe Illustrator 16.0.0, SVG Export Plug-In . SVG Version: 6.00 Build 0)  -->
    <!DOCTYPE svg PUBLIC "-//W3C//DTD SVG 1.1//EN" "http://www.w3.org/Graphics/SVG/1.1/DTD/svg11.dtd">
    <svg version="1.1" id="svg-7" xmlns="http://www.w3.org/2000/svg" xmlns:xlink="http://www.w3.org/1999/xlink" x="0px" y="0px"
    	 width="510px" height="510px" viewBox="0 0 510 510" style="enable-background:new 0 0 510 510;" xml:space="preserve">
    	<g id="error">
    		<path d="M255,0C114.75,0,0,114.75,0,255s114.75,255,255,255s255-114.75,255-255S395.25,0,255,0z M280.5,382.5h-51v-51h51V382.5z
    			 M280.5,280.5h-51v-153h51V280.5z"/>
    	</g>
    </svg>

    <?xml version="1.0" encoding="iso-8859-1"?>
    <!-- Generator: Adobe Illustrator 16.0.0, SVG Export Plug-In . SVG Version: 6.00 Build 0)  -->
    <!DOCTYPE svg PUBLIC "-//W3C//DTD SVG 1.1//EN" "http://www.w3.org/Graphics/SVG/1.1/DTD/svg11.dtd">
    <svg version="1.1" id="svg-8" xmlns="http://www.w3.org/2000/svg" xmlns:xlink="http://www.w3.org/1999/xlink" x="0px" y="0px"
    	 width="466.227px" height="466.227px" viewBox="0 0 466.227 466.227" style="enable-background:new 0 0 466.227 466.227;"
    	 xml:space="preserve">
    	<path d="M463.36,2.852c-1.906-1.805-4.188-2.712-6.854-2.712c-49.677,0-90.694,6.755-123.051,20.271
    		c-32.353,13.518-66.424,38.072-102.208,73.662c-15.225,15.418-31.977,33.977-50.248,55.675l-108.205,5.708
    		c-3.046,0.387-5.52,1.906-7.423,4.57L1.418,269.666c-2.285,3.806-1.807,7.519,1.427,11.136l18.271,18.271
    		c1.714,1.714,3.901,2.569,6.567,2.569c1.143,0,1.997-0.096,2.568-0.287l78.802-24.273l80.228,80.232l-24.269,78.795
    		c-0.949,3.43-0.188,6.472,2.285,9.138l18.272,18.274c2.094,1.707,4.285,2.566,6.567,2.566c1.716,0,3.238-0.384,4.569-1.144
    		l109.639-63.953c2.666-1.902,4.186-4.373,4.568-7.419l5.708-108.209c21.7-18.274,40.262-35.022,55.676-50.251
    		c33.89-34.074,58.009-68.378,72.375-102.923c14.373-34.547,21.556-75.519,21.556-122.91C466.224,6.804,465.273,4.664,463.36,2.852z
    		 M394.277,110.92c-5.325,5.326-11.8,7.994-19.414,7.994s-14.082-2.665-19.414-7.994c-5.325-5.33-7.994-11.802-7.994-19.417
    		c0-7.611,2.666-14.084,7.994-19.414c5.328-5.327,11.8-7.993,19.414-7.993s14.086,2.663,19.414,7.993s7.994,11.803,7.994,19.414
    		C402.271,99.119,399.612,105.586,394.277,110.92z"/>
    </svg>


    </defs>
</svg>
