<?xml version="1.0" encoding="UTF-8" standalone="no"?>
<svg
   xmlns:dc="http://purl.org/dc/elements/1.1/"
   xmlns:cc="http://creativecommons.org/ns#"
   xmlns:rdf="http://www.w3.org/1999/02/22-rdf-syntax-ns#"
   xmlns:svg="http://www.w3.org/2000/svg"
   xmlns="http://www.w3.org/2000/svg"
   xmlns:sodipodi="http://sodipodi.sourceforge.net/DTD/sodipodi-0.dtd"
   xmlns:inkscape="http://www.inkscape.org/namespaces/inkscape"
   viewBox="-18 -17 164 164"
   height="100%"
   width="100%"
   id="user"
   x="384"
   y="256"
   fit=""
   preserveAspectRatio="xMidYMid meet"
   style="display:block"
   version="1.1"
   inkscape:version="0.48.4 r9939"
   sodipodi:docname="user.svg">
  <metadata
     id="metadata3016">
    <rdf:RDF>
      <cc:Work
         rdf:about="">
        <dc:format>image/svg+xml</dc:format>
        <dc:type
           rdf:resource="http://purl.org/dc/dcmitype/StillImage" />
      </cc:Work>
    </rdf:RDF>
  </metadata>
  <defs
     id="defs3014" />
  <sodipodi:namedview
     pagecolor="#ffffff"
     bordercolor="#666666"
     borderopacity="1"
     objecttolerance="10"
     gridtolerance="10"
     guidetolerance="10"
     inkscape:pageopacity="0"
     inkscape:pageshadow="2"
     inkscape:window-width="1317"
     inkscape:window-height="744"
     id="namedview3012"
     showgrid="false"
     inkscape:zoom="2.3320313"
     inkscape:cx="64.672509"
     inkscape:cy="75.883389"
     inkscape:window-x="49"
     inkscape:window-y="24"
     inkscape:window-maximized="1"
     inkscape:current-layer="user" />
  <path
     d="M 13.290502,0.01409774 C 43.22312,-25.558755 104.71393,-19.770346 129.61918,10.964645 154.52443,41.699635 148.88713,104.83877 118.9545,130.41162 89.02189,155.98449 27.531076,150.19607 2.6258319,119.46107 -22.279413,88.726084 -16.642116,25.586952 13.290502,0.01409774 z"
     id="path2986"
     inkscape:connector-curvature="0"
     style="fill:#ffff8d"
     sodipodi:nodetypes="aaaaa" />
  <path
     d="m 51.7,31.4 v -22 c 0,0 -19.6,2.5 -15.8,29.9 11,0 14.8,-4.3 15.8,-7.9 z"
     id="path2988"
     inkscape:connector-curvature="0"
     style="fill:#c2c2c2" />
  <path
     d="m 94.1,39.8 c 0.1,-1 0,-2 -0.1,-3 0,-1 -0.1,-1.9 -0.2,-2.9 C 93.6,32.1 93.4,30.4 93,28.7 92.4,25.8 91.5,22.9 90.1,20.3 89,18.1 87.5,16.1 85.8,14.3 84.2,12.7 82.5,11.4 80.5,10.4 78.7,9.4 76.7,8.7 74.7,8.2 72.7,7.7 70.7,7.4 68.7,7.3 66.8,7.2 64.9,7.2 63,7.3 61.3,7.4 59.7,7.6 58,7.9 56.7,8.1 55.5,8.4 54.2,8.7 L 52,9.3 51.6,9.4 v 20.8 c 0,1 -0.1,1.8 0.4,2.7 0.2,0.3 0.5,0.6 0.6,0.9 0.3,0.9 0.7,1.8 1.2,2.7 1.1,1.8 2.7,3.4 4.7,4.3 2.4,1.1 5.1,1.4 7.8,1.6 4.8,0.3 9.6,0.4 14.3,0.3 2.2,0 4.3,-0.3 6.4,-0.9 1.2,-0.3 2.4,-0.6 3.6,-1 0.6,-0.2 1.2,-0.4 1.8,-0.5 0.6,-0.2 1.2,-0.5 1.7,-0.5 z"
     id="path2990"
     inkscape:connector-curvature="0"
     style="fill:#848484" />
  <path
     d="m 66.8,116.8 17.9,-8.7 3.1,-8.2 C 72.7,82.9 89,68.3 90.1,67.4 h 0.1 l 13.2,-11.1 c 1.5,-1.2 2.5,-3 2.8,-5 0.6,-4.4 -2.5,-8.4 -6.9,-9.1 -1.5,-0.2 -3,0 -4.3,0.6 -0.2,-1 -0.5,-1.9 -0.8,-2.9 -26.9,3.7 -37.9,-2.5 -42.4,-8.4 -1.6,2.6 -5.1,6.1 -15.8,7.9 -0.2,0.9 -0.5,2 -0.8,3.1 -1.2,-0.4 -2.4,-0.6 -3.8,-0.4 -4.4,0.6 -7.5,4.7 -6.9,9.1 0.3,2 1.3,3.8 2.8,5 l 7.5,6.4 c 4.2,4.5 18.4,21.7 9,37 l 0.7,3.7 4.7,4.6 17.6,8.9 z"
     id="path2992"
     inkscape:connector-curvature="0"
     style="fill:#ffe0b2" />
  <path
     d="m 33.735701,104.09357 z m 54.3,-0.4 -0.8,1.5 -6.8,12.1 v 10.1 H 121.9357 v -2.3 z"
     id="path2994"
     inkscape:connector-curvature="0"
     style="fill:#055524" />
  <path
     d="m 40.4,103.9 c -0.2,0.2 -0.3,0.4 -0.5,0.5 0,0 -0.1,0.1 -0.1,0.2 v 0.1 l 0.6,-0.8 z"
     id="path2996"
     inkscape:connector-curvature="0"
     style="fill:#ffe0b2" />
  <circle
     cx="80"
     cy="51.700001"
     r="2"
     id="circle2998"
     sodipodi:cx="80"
     sodipodi:cy="51.700001"
     sodipodi:rx="2"
     sodipodi:ry="2"
     style="fill:#444444" />
  <circle
     cx="54.299999"
     cy="51.700001"
     r="2"
     id="circle3000"
     sodipodi:cx="54.299999"
     sodipodi:cy="51.700001"
     sodipodi:rx="2"
     sodipodi:ry="2"
     style="fill:#444444" />
  <path
     d="m 39.8,104.7 c -3.2,0.9 -6.1,2.7 -8.6,5.5 l -0.2,0.2 c 0,0 -0.5,0.6 -1.5,1.7 -0.9,1.1 -2.2,2.6 -3.7,4.5 -2.3,2.9 -5.1,6.7 -8.3,11.4 h 31 v -7.8 l -8.7,-15.5 z"
     id="path3002"
     inkscape:connector-curvature="0"
     style="fill:#055524" />
  <path
     d="m 65.3,67.3 c 0,0 2.7,9.8 14.5,9.8 0,0 3.9,-18.5 -14.5,-18.5 v 8.7 z"
     id="path3004"
     inkscape:connector-curvature="0"
     style="fill:#848484" />
  <path
     d="M 65.3,67.3 V 58.6 C 46.9,58.6 50.8,77 50.8,77 62.6,77 65.3,67.3 65.3,67.3 z"
     id="path3006"
     inkscape:connector-curvature="0"
     style="fill:#c2c2c2" />
  <path
     d="m 80.9,128 h 5.6 v -10.1 z m -21,0 h 13.8 l -6.9,-10 z m -11.5,0 h 4.3 l -4.3,-7.8 z"
     id="path3008"
     inkscape:connector-curvature="0"
     style="fill:#a7ffeb" />
  <path
     d="m 66.8,118 -0.5,-0.8 0.5,-0.4 -22.9,-17.3 h -0.1 l -3.4,4.4 -0.6,0.8 8.6,15.5 4.3,7.8 h 7.2 z m 26.5,-12.2 0.8,-1.5 -6.4,-4.4 -20.9,16.9 -0.5,0.4 0.5,0.8 6.9,10 h 7.2 l 5.6,-10.1 z"
     id="path3010"
     inkscape:connector-curvature="0"
     style="fill:#1de9b6" />
</svg>
